<svg width="21" height="21" viewBox="0 0 21 21" fill="none" xmlns="http://www.w3.org/2000/svg">
<path d="M9.34506 3.18875C9.45726 2.97961 9.62407 2.8048 9.82773 2.68294C10.0314 2.56108 10.2643 2.49673 10.5016 2.49673C10.739 2.49673 10.9719 2.56108 11.1755 2.68294C11.3792 2.8048 11.546 2.97961 11.6582 3.18875L13.4012 6.4364L12.3239 6.0773C12.1256 6.0113 11.9093 6.02677 11.7224 6.12031C11.5355 6.21384 11.3935 6.37778 11.3275 6.57605C11.2615 6.77433 11.2769 6.9907 11.3705 7.17757C11.464 7.36444 11.6279 7.5065 11.8262 7.5725L14.9762 8.6225C15.0842 8.65849 15.1988 8.67063 15.3119 8.65808C15.4251 8.64553 15.5342 8.60859 15.6317 8.5498C15.7292 8.49102 15.8128 8.41178 15.8768 8.31756C15.9407 8.22335 15.9835 8.11638 16.0021 8.00405L16.5271 4.85405C16.544 4.75201 16.5407 4.64764 16.5173 4.54688C16.494 4.44612 16.451 4.35095 16.3908 4.2668C16.3306 4.18266 16.2545 4.11119 16.1667 4.05647C16.0789 4.00175 15.9812 3.96486 15.8792 3.9479C15.7772 3.93094 15.6728 3.93425 15.572 3.95762C15.4713 3.981 15.3761 4.024 15.292 4.08416C15.2078 4.14432 15.1363 4.22046 15.0816 4.30824C15.0269 4.39602 14.99 4.49371 14.9731 4.59575L14.7904 5.69405L13.0453 2.4443C11.9564 0.415702 9.04791 0.415702 7.95906 2.4443L6.13626 5.83685C6.04221 6.02035 6.02388 6.23341 6.0852 6.43027C6.14653 6.62713 6.28262 6.79209 6.46424 6.88971C6.64587 6.98732 6.85853 7.00981 7.05655 6.95234C7.25457 6.89487 7.42216 6.76203 7.52331 6.58235L9.34506 3.18875ZM17.7871 14.6054L15.7805 10.8664C15.7291 10.7751 15.6965 10.6745 15.6845 10.5705C15.6724 10.4665 15.6813 10.3611 15.7105 10.2606C15.7396 10.16 15.7886 10.0663 15.8544 9.98485C15.9203 9.90343 16.0017 9.83596 16.0939 9.78639C16.1862 9.73682 16.2874 9.70614 16.3916 9.69614C16.4958 9.68615 16.601 9.69704 16.701 9.72819C16.8009 9.75933 16.8937 9.8101 16.9738 9.87752C17.0539 9.94495 17.1198 10.0277 17.1676 10.1209L19.1752 13.8599C20.2073 15.7835 18.814 18.1124 16.631 18.1124H12.9287L13.6837 18.8684C13.7588 18.9411 13.8188 19.028 13.86 19.1241C13.9012 19.2202 13.9229 19.3235 13.9238 19.4281C13.9246 19.5327 13.9047 19.6364 13.865 19.7331C13.8254 19.8299 13.7669 19.9178 13.6929 19.9917C13.6189 20.0656 13.531 20.124 13.4342 20.1636C13.3374 20.2031 13.2337 20.223 13.1291 20.222C13.0245 20.2211 12.9212 20.1993 12.8251 20.158C12.7291 20.1167 12.6422 20.0567 12.5696 19.9814L10.4696 17.8814C10.3221 17.7337 10.2393 17.5336 10.2393 17.3249C10.2393 17.1162 10.3221 16.9161 10.4696 16.7684L12.5696 14.6684C12.6417 14.591 12.7286 14.529 12.8252 14.4859C12.9218 14.4429 13.0261 14.4197 13.1319 14.4179C13.2376 14.416 13.3426 14.4355 13.4407 14.4751C13.5387 14.5147 13.6278 14.5736 13.7026 14.6484C13.7774 14.7232 13.8363 14.8123 13.8759 14.9103C13.9155 15.0084 13.935 15.1134 13.9331 15.2192C13.9313 15.3249 13.9081 15.4292 13.8651 15.5258C13.822 15.6224 13.76 15.7093 13.6826 15.7814L12.9266 16.5374H16.631C16.8577 16.537 17.0803 16.478 17.2774 16.366C17.4745 16.254 17.6391 16.0929 17.7554 15.8984C17.8717 15.7038 17.9357 15.4825 17.941 15.2559C17.9464 15.0293 17.893 14.8052 17.786 14.6054H17.7871ZM7.61256 16.5374C7.82141 16.5374 8.02172 16.6204 8.1694 16.7681C8.31709 16.9157 8.40006 17.116 8.40006 17.3249C8.40006 17.5338 8.31709 17.7341 8.1694 17.8818C8.02172 18.0294 7.82141 18.1124 7.61256 18.1124H4.37226C2.18826 18.1124 0.795955 15.7835 1.82811 13.8599L3.76746 10.2479L2.34996 10.7204C2.15402 10.779 1.94297 10.759 1.76148 10.6648C1.57999 10.5705 1.44228 10.4094 1.37748 10.2154C1.31269 10.0214 1.3259 9.80985 1.41431 9.62544C1.50272 9.44104 1.6594 9.29825 1.85121 9.2273L5.00121 8.17625C5.09931 8.14349 5.20291 8.13038 5.30609 8.13766C5.40926 8.14494 5.50999 8.17248 5.60253 8.21869C5.69506 8.26491 5.77758 8.3289 5.84538 8.40702C5.91317 8.48513 5.96492 8.57584 5.99766 8.67395L7.04766 11.824C7.0804 11.9221 7.09351 12.0257 7.08622 12.1288C7.07893 12.232 7.05139 12.3327 7.00518 12.4253C6.95896 12.5178 6.89497 12.6003 6.81687 12.6681C6.73876 12.7359 6.64806 12.7877 6.54996 12.8204C6.45185 12.8532 6.34825 12.8663 6.24508 12.859C6.14191 12.8517 6.04118 12.8241 5.94865 12.7779C5.85612 12.7317 5.7736 12.6677 5.70581 12.5896C5.63801 12.5115 5.58625 12.4208 5.55351 12.3227L5.12721 11.0449L3.21621 14.6044C3.10918 14.8042 3.05577 15.0285 3.06118 15.2551C3.06658 15.4818 3.13061 15.7032 3.24703 15.8978C3.36346 16.0923 3.5283 16.2534 3.7255 16.3653C3.92269 16.4773 4.14552 16.5362 4.37226 16.5364H7.61256V16.5374Z" fill="black"/>
</svg>
