<svg width="18" height="17" viewBox="0 0 18 17" fill="none" xmlns="http://www.w3.org/2000/svg">
<path d="M9 0C10.1935 0 11.3381 0.44517 12.182 1.23758C13.0259 2.02998 13.5 3.10472 13.5 4.22535C13.5 5.34598 13.0259 6.42072 12.182 7.21313C11.3381 8.00553 10.1935 8.4507 9 8.4507C7.80653 8.4507 6.66193 8.00553 5.81802 7.21313C4.97411 6.42072 4.5 5.34598 4.5 4.22535C4.5 3.10472 4.97411 2.02998 5.81802 1.23758C6.66193 0.44517 7.80653 0 9 0ZM9 10.5634C13.9725 10.5634 18 12.4542 18 14.7887V16.9014H0V14.7887C0 12.4542 4.0275 10.5634 9 10.5634Z" fill="#D9D9D9"/>
</svg>
