<svg width="324" height="49" viewBox="0 0 324 49" fill="none" xmlns="http://www.w3.org/2000/svg">
<rect width="324" height="49" rx="4" fill="#FEE500"/>
<g clip-path="url(#clip0_412_652)">
<path opacity="0.902" fill-rule="evenodd" clip-rule="evenodd" d="M104.5 16.444C99.79 16.444 95.5 20.23 95.5 23.433C95.5 25.833 97.058 27.95 99.431 29.208L98.433 32.874C98.344 33.199 98.713 33.457 98.996 33.27L103.373 30.365C103.742 30.401 104.118 30.422 104.5 30.422C109.47 30.422 113.5 27.293 113.5 23.433C113.5 20.23 109.47 16.444 104.5 16.444Z" fill="black"/>
</g>
<path d="M138.374 16.648C138.266 22.336 135.512 25.72 131.192 27.808L130.346 26.782C132.938 25.666 134.936 23.902 136.034 21.562L130.724 22.03L130.436 20.788L136.466 20.428C136.718 19.6 136.88 18.718 136.934 17.782H131.102V16.648H138.374ZM142.28 15.028V21.472H144.854V22.642H142.28V30.76H140.912V15.028H142.28ZM153.948 16.648C153.84 22.336 151.086 25.72 146.766 27.808L145.92 26.782C148.512 25.666 150.51 23.902 151.608 21.562L146.298 22.03L146.01 20.788L152.04 20.428C152.292 19.6 152.454 18.718 152.508 17.782H146.676V16.648H153.948ZM157.854 15.028V21.472H160.428V22.642H157.854V30.76H156.486V15.028H157.854ZM174.094 20.302C174.094 22.714 172.114 24.352 169.09 24.55V27.538H175.534V28.69H161.332V27.538H167.722V24.55C164.716 24.334 162.754 22.714 162.754 20.302C162.754 17.71 165.022 16.018 168.406 16.018C171.844 16.018 174.094 17.71 174.094 20.302ZM172.78 20.32C172.78 18.43 171.07 17.17 168.406 17.17C165.796 17.17 164.086 18.43 164.086 20.32C164.086 22.21 165.796 23.452 168.406 23.452C171.052 23.452 172.78 22.21 172.78 20.32ZM195.837 28.762H181.635V27.61H188.025V24.928H183.381V20.014H192.705V17.494H183.363V16.342H194.073V21.148H184.749V23.776H194.523V24.928H189.393V27.61H195.837V28.762ZM211.411 28.438H197.209V27.286H211.411V28.438ZM209.377 16.792C209.377 20.41 209.161 23.686 208.675 26.098L207.307 25.918C207.739 23.92 207.973 20.5 207.973 17.926H198.685V16.792H209.377ZM225.636 26.512H224.268V15.028H225.636V26.512ZM226.032 30.238H215.376V25.378H216.744V29.104H226.032V30.238ZM217.356 16.072C219.75 16.072 221.604 17.656 221.604 19.996C221.604 22.336 219.768 23.902 217.374 23.902C214.98 23.902 213.126 22.354 213.126 20.014C213.126 17.674 214.98 16.072 217.356 16.072ZM217.356 17.26C215.7 17.26 214.44 18.394 214.44 19.996C214.44 21.58 215.718 22.696 217.374 22.696C219.102 22.696 220.308 21.58 220.308 20.014C220.308 18.394 219.102 17.26 217.356 17.26Z" fill="black"/>
<defs>
<clipPath id="clip0_412_652">
<rect width="18" height="18" fill="white" transform="translate(95.5 15.5)"/>
</clipPath>
</defs>
</svg>
