<svg width="116" height="38" viewBox="0 0 116 38" fill="none" xmlns="http://www.w3.org/2000/svg">
<path d="M27.12 26.98C27.1867 27.54 27.3333 28.04 27.56 28.48C27.8 28.9067 28.08 29.2667 28.4 29.56C28.7333 29.8533 29.1 30.0733 29.5 30.22C29.9133 30.3667 30.3333 30.44 30.76 30.44C31.4 30.44 32.0067 30.3 32.58 30.02C33.1533 29.7267 33.66 29.3267 34.1 28.82L35.52 30.16C34.88 30.8533 34.1733 31.38 33.4 31.74C32.64 32.0867 31.7733 32.26 30.8 32.26C29.9067 32.26 29.0933 32.1067 28.36 31.8C27.64 31.4933 27.02 31.0733 26.5 30.54C25.9933 29.9933 25.6 29.36 25.32 28.64C25.04 27.9067 24.9 27.1267 24.9 26.3C24.9 25.4867 25.04 24.72 25.32 24C25.6 23.2667 25.9933 22.6333 26.5 22.1C27.0067 21.5667 27.6067 21.1467 28.3 20.84C29.0067 20.52 29.78 20.36 30.62 20.36C31.4467 20.36 32.2 20.5133 32.88 20.82C33.5733 21.1133 34.16 21.52 34.64 22.04C35.1333 22.56 35.5133 23.1667 35.78 23.86C36.0467 24.5533 36.18 25.2933 36.18 26.08C36.18 26.3467 36.1467 26.6467 36.08 26.98H27.12ZM30.62 22.2C30.2333 22.2 29.8533 22.2733 29.48 22.42C29.12 22.5533 28.78 22.7533 28.46 23.02C28.1533 23.2867 27.8867 23.6133 27.66 24C27.4333 24.3733 27.2733 24.8 27.18 25.28H33.94C33.86 24.8267 33.72 24.4133 33.52 24.04C33.3333 23.6667 33.1 23.3467 32.82 23.08C32.54 22.8 32.2133 22.5867 31.84 22.44C31.4667 22.28 31.06 22.2 30.62 22.2ZM43.7459 32.26C42.8926 32.26 42.1126 32.1067 41.4059 31.8C40.6993 31.48 40.0926 31.0533 39.5859 30.52C39.0793 29.9733 38.6859 29.34 38.4059 28.62C38.1259 27.9 37.9859 27.1267 37.9859 26.3C37.9859 25.4867 38.1259 24.72 38.4059 24C38.6859 23.2667 39.0793 22.6333 39.5859 22.1C40.0926 21.5667 40.6993 21.1467 41.4059 20.84C42.1126 20.52 42.8926 20.36 43.7459 20.36C44.5726 20.36 45.3259 20.5 46.0059 20.78C46.6859 21.0467 47.3059 21.4133 47.8659 21.88L46.7859 23.54C46.3593 23.18 45.8926 22.88 45.3859 22.64C44.8926 22.4 44.3459 22.28 43.7459 22.28C43.2126 22.28 42.7259 22.3867 42.2859 22.6C41.8459 22.8133 41.4659 23.1 41.1459 23.46C40.8393 23.82 40.5993 24.2467 40.4259 24.74C40.2526 25.22 40.1659 25.74 40.1659 26.3C40.1659 26.86 40.2526 27.3867 40.4259 27.88C40.5993 28.3733 40.8393 28.8067 41.1459 29.18C41.4659 29.54 41.8459 29.8267 42.2859 30.04C42.7259 30.2533 43.2126 30.36 43.7459 30.36C44.3459 30.36 44.9059 30.2267 45.4259 29.96C45.9593 29.6933 46.4326 29.3667 46.8459 28.98L48.1059 30.54C47.5459 31.0733 46.8993 31.4933 46.1659 31.8C45.4326 32.1067 44.6259 32.26 43.7459 32.26ZM55.055 30.36C55.575 30.36 56.055 30.2533 56.495 30.04C56.935 29.8267 57.315 29.54 57.635 29.18C57.955 28.8067 58.2017 28.3733 58.375 27.88C58.5483 27.3867 58.635 26.86 58.635 26.3C58.635 25.74 58.5483 25.22 58.375 24.74C58.2017 24.2467 57.955 23.82 57.635 23.46C57.315 23.1 56.935 22.8133 56.495 22.6C56.055 22.3867 55.575 22.28 55.055 22.28C54.5217 22.28 54.035 22.3867 53.595 22.6C53.155 22.8133 52.775 23.1 52.455 23.46C52.135 23.82 51.8883 24.2467 51.715 24.74C51.5417 25.22 51.455 25.74 51.455 26.3C51.455 26.86 51.5417 27.3867 51.715 27.88C51.8883 28.3733 52.135 28.8067 52.455 29.18C52.775 29.54 53.155 29.8267 53.595 30.04C54.035 30.2533 54.5217 30.36 55.055 30.36ZM55.055 20.36C55.895 20.36 56.6683 20.52 57.375 20.84C58.0817 21.1467 58.6883 21.5667 59.195 22.1C59.715 22.6333 60.115 23.2667 60.395 24C60.675 24.72 60.815 25.4867 60.815 26.3C60.815 27.1267 60.675 27.9 60.395 28.62C60.115 29.34 59.715 29.9733 59.195 30.52C58.6883 31.0533 58.0817 31.48 57.375 31.8C56.6683 32.1067 55.895 32.26 55.055 32.26C54.2017 32.26 53.4217 32.1067 52.715 31.8C52.0083 31.48 51.395 31.0533 50.875 30.52C50.3683 29.9733 49.975 29.34 49.695 28.62C49.415 27.9 49.275 27.1267 49.275 26.3C49.275 25.4867 49.415 24.72 49.695 24C49.975 23.2667 50.3683 22.6333 50.875 22.1C51.395 21.5667 52.0083 21.1467 52.715 20.84C53.4217 20.52 54.2017 20.36 55.055 20.36Z" fill="black"/>
<path d="M68.3748 32.26C67.5215 32.26 66.7415 32.1067 66.0348 31.8C65.3282 31.48 64.7215 31.0533 64.2148 30.52C63.7082 29.9733 63.3148 29.34 63.0348 28.62C62.7548 27.9 62.6148 27.1267 62.6148 26.3C62.6148 25.4867 62.7548 24.72 63.0348 24C63.3148 23.2667 63.7082 22.6333 64.2148 22.1C64.7215 21.5667 65.3282 21.1467 66.0348 20.84C66.7415 20.52 67.5215 20.36 68.3748 20.36C69.2015 20.36 69.9548 20.5 70.6348 20.78C71.3148 21.0467 71.9348 21.4133 72.4948 21.88L71.4148 23.54C70.9882 23.18 70.5215 22.88 70.0148 22.64C69.5215 22.4 68.9748 22.28 68.3748 22.28C67.8415 22.28 67.3548 22.3867 66.9148 22.6C66.4748 22.8133 66.0948 23.1 65.7748 23.46C65.4682 23.82 65.2282 24.2467 65.0548 24.74C64.8815 25.22 64.7948 25.74 64.7948 26.3C64.7948 26.86 64.8815 27.3867 65.0548 27.88C65.2282 28.3733 65.4682 28.8067 65.7748 29.18C66.0948 29.54 66.4748 29.8267 66.9148 30.04C67.3548 30.2533 67.8415 30.36 68.3748 30.36C68.9748 30.36 69.5348 30.2267 70.0548 29.96C70.5882 29.6933 71.0615 29.3667 71.4748 28.98L72.7348 30.54C72.1748 31.0733 71.5282 31.4933 70.7948 31.8C70.0615 32.1067 69.2548 32.26 68.3748 32.26ZM77.9192 31.94L73.4992 20.6H75.7792L79.0192 29.2L82.2792 20.6H84.5392L78.1592 37.08H75.8992L77.9192 31.94ZM91.3045 32.26C90.4512 32.26 89.6712 32.1067 88.9645 31.8C88.2579 31.48 87.6512 31.0533 87.1445 30.52C86.6379 29.9733 86.2445 29.34 85.9645 28.62C85.6845 27.9 85.5445 27.1267 85.5445 26.3C85.5445 25.4867 85.6845 24.72 85.9645 24C86.2445 23.2667 86.6379 22.6333 87.1445 22.1C87.6512 21.5667 88.2579 21.1467 88.9645 20.84C89.6712 20.52 90.4512 20.36 91.3045 20.36C92.1312 20.36 92.8845 20.5 93.5645 20.78C94.2445 21.0467 94.8645 21.4133 95.4245 21.88L94.3445 23.54C93.9179 23.18 93.4512 22.88 92.9445 22.64C92.4512 22.4 91.9045 22.28 91.3045 22.28C90.7712 22.28 90.2845 22.3867 89.8445 22.6C89.4045 22.8133 89.0245 23.1 88.7045 23.46C88.3979 23.82 88.1579 24.2467 87.9845 24.74C87.8112 25.22 87.7245 25.74 87.7245 26.3C87.7245 26.86 87.8112 27.3867 87.9845 27.88C88.1579 28.3733 88.3979 28.8067 88.7045 29.18C89.0245 29.54 89.4045 29.8267 89.8445 30.04C90.2845 30.2533 90.7712 30.36 91.3045 30.36C91.9045 30.36 92.4645 30.2267 92.9845 29.96C93.5179 29.6933 93.9912 29.3667 94.4045 28.98L95.6645 30.54C95.1045 31.0733 94.4579 31.4933 93.7245 31.8C92.9912 32.1067 92.1845 32.26 91.3045 32.26ZM98.1642 15.94H100.324V32H98.1642V15.94ZM105.304 26.98C105.37 27.54 105.517 28.04 105.744 28.48C105.984 28.9067 106.264 29.2667 106.584 29.56C106.917 29.8533 107.284 30.0733 107.684 30.22C108.097 30.3667 108.517 30.44 108.944 30.44C109.584 30.44 110.19 30.3 110.764 30.02C111.337 29.7267 111.844 29.3267 112.284 28.82L113.704 30.16C113.064 30.8533 112.357 31.38 111.584 31.74C110.824 32.0867 109.957 32.26 108.984 32.26C108.09 32.26 107.277 32.1067 106.544 31.8C105.824 31.4933 105.204 31.0733 104.684 30.54C104.177 29.9933 103.784 29.36 103.504 28.64C103.224 27.9067 103.084 27.1267 103.084 26.3C103.084 25.4867 103.224 24.72 103.504 24C103.784 23.2667 104.177 22.6333 104.684 22.1C105.19 21.5667 105.79 21.1467 106.484 20.84C107.19 20.52 107.964 20.36 108.804 20.36C109.63 20.36 110.384 20.5133 111.064 20.82C111.757 21.1133 112.344 21.52 112.824 22.04C113.317 22.56 113.697 23.1667 113.964 23.86C114.23 24.5533 114.364 25.2933 114.364 26.08C114.364 26.3467 114.33 26.6467 114.264 26.98H105.304ZM108.804 22.2C108.417 22.2 108.037 22.2733 107.664 22.42C107.304 22.5533 106.964 22.7533 106.644 23.02C106.337 23.2867 106.07 23.6133 105.844 24C105.617 24.3733 105.457 24.8 105.364 25.28H112.124C112.044 24.8267 111.904 24.4133 111.704 24.04C111.517 23.6667 111.284 23.3467 111.004 23.08C110.724 22.8 110.397 22.5867 110.024 22.44C109.65 22.28 109.244 22.2 108.804 22.2Z" fill="#47ABFF"/>
<path d="M27.12 26.98C27.1867 27.54 27.3333 28.04 27.56 28.48C27.8 28.9067 28.08 29.2667 28.4 29.56C28.7333 29.8533 29.1 30.0733 29.5 30.22C29.9133 30.3667 30.3333 30.44 30.76 30.44C31.4 30.44 32.0067 30.3 32.58 30.02C33.1533 29.7267 33.66 29.3267 34.1 28.82L35.52 30.16C34.88 30.8533 34.1733 31.38 33.4 31.74C32.64 32.0867 31.7733 32.26 30.8 32.26C29.9067 32.26 29.0933 32.1067 28.36 31.8C27.64 31.4933 27.02 31.0733 26.5 30.54C25.9933 29.9933 25.6 29.36 25.32 28.64C25.04 27.9067 24.9 27.1267 24.9 26.3C24.9 25.4867 25.04 24.72 25.32 24C25.6 23.2667 25.9933 22.6333 26.5 22.1C27.0067 21.5667 27.6067 21.1467 28.3 20.84C29.0067 20.52 29.78 20.36 30.62 20.36C31.4467 20.36 32.2 20.5133 32.88 20.82C33.5733 21.1133 34.16 21.52 34.64 22.04C35.1333 22.56 35.5133 23.1667 35.78 23.86C36.0467 24.5533 36.18 25.2933 36.18 26.08C36.18 26.3467 36.1467 26.6467 36.08 26.98H27.12ZM30.62 22.2C30.2333 22.2 29.8533 22.2733 29.48 22.42C29.12 22.5533 28.78 22.7533 28.46 23.02C28.1533 23.2867 27.8867 23.6133 27.66 24C27.4333 24.3733 27.2733 24.8 27.18 25.28H33.94C33.86 24.8267 33.72 24.4133 33.52 24.04C33.3333 23.6667 33.1 23.3467 32.82 23.08C32.54 22.8 32.2133 22.5867 31.84 22.44C31.4667 22.28 31.06 22.2 30.62 22.2ZM43.7459 32.26C42.8926 32.26 42.1126 32.1067 41.4059 31.8C40.6993 31.48 40.0926 31.0533 39.5859 30.52C39.0793 29.9733 38.6859 29.34 38.4059 28.62C38.1259 27.9 37.9859 27.1267 37.9859 26.3C37.9859 25.4867 38.1259 24.72 38.4059 24C38.6859 23.2667 39.0793 22.6333 39.5859 22.1C40.0926 21.5667 40.6993 21.1467 41.4059 20.84C42.1126 20.52 42.8926 20.36 43.7459 20.36C44.5726 20.36 45.3259 20.5 46.0059 20.78C46.6859 21.0467 47.3059 21.4133 47.8659 21.88L46.7859 23.54C46.3593 23.18 45.8926 22.88 45.3859 22.64C44.8926 22.4 44.3459 22.28 43.7459 22.28C43.2126 22.28 42.7259 22.3867 42.2859 22.6C41.8459 22.8133 41.4659 23.1 41.1459 23.46C40.8393 23.82 40.5993 24.2467 40.4259 24.74C40.2526 25.22 40.1659 25.74 40.1659 26.3C40.1659 26.86 40.2526 27.3867 40.4259 27.88C40.5993 28.3733 40.8393 28.8067 41.1459 29.18C41.4659 29.54 41.8459 29.8267 42.2859 30.04C42.7259 30.2533 43.2126 30.36 43.7459 30.36C44.3459 30.36 44.9059 30.2267 45.4259 29.96C45.9593 29.6933 46.4326 29.3667 46.8459 28.98L48.1059 30.54C47.5459 31.0733 46.8993 31.4933 46.1659 31.8C45.4326 32.1067 44.6259 32.26 43.7459 32.26ZM55.055 30.36C55.575 30.36 56.055 30.2533 56.495 30.04C56.935 29.8267 57.315 29.54 57.635 29.18C57.955 28.8067 58.2017 28.3733 58.375 27.88C58.5483 27.3867 58.635 26.86 58.635 26.3C58.635 25.74 58.5483 25.22 58.375 24.74C58.2017 24.2467 57.955 23.82 57.635 23.46C57.315 23.1 56.935 22.8133 56.495 22.6C56.055 22.3867 55.575 22.28 55.055 22.28C54.5217 22.28 54.035 22.3867 53.595 22.6C53.155 22.8133 52.775 23.1 52.455 23.46C52.135 23.82 51.8883 24.2467 51.715 24.74C51.5417 25.22 51.455 25.74 51.455 26.3C51.455 26.86 51.5417 27.3867 51.715 27.88C51.8883 28.3733 52.135 28.8067 52.455 29.18C52.775 29.54 53.155 29.8267 53.595 30.04C54.035 30.2533 54.5217 30.36 55.055 30.36ZM55.055 20.36C55.895 20.36 56.6683 20.52 57.375 20.84C58.0817 21.1467 58.6883 21.5667 59.195 22.1C59.715 22.6333 60.115 23.2667 60.395 24C60.675 24.72 60.815 25.4867 60.815 26.3C60.815 27.1267 60.675 27.9 60.395 28.62C60.115 29.34 59.715 29.9733 59.195 30.52C58.6883 31.0533 58.0817 31.48 57.375 31.8C56.6683 32.1067 55.895 32.26 55.055 32.26C54.2017 32.26 53.4217 32.1067 52.715 31.8C52.0083 31.48 51.395 31.0533 50.875 30.52C50.3683 29.9733 49.975 29.34 49.695 28.62C49.415 27.9 49.275 27.1267 49.275 26.3C49.275 25.4867 49.415 24.72 49.695 24C49.975 23.2667 50.3683 22.6333 50.875 22.1C51.395 21.5667 52.0083 21.1467 52.715 20.84C53.4217 20.52 54.2017 20.36 55.055 20.36Z" fill="black"/>
<path d="M68.3748 32.26C67.5215 32.26 66.7415 32.1067 66.0348 31.8C65.3282 31.48 64.7215 31.0533 64.2148 30.52C63.7082 29.9733 63.3148 29.34 63.0348 28.62C62.7548 27.9 62.6148 27.1267 62.6148 26.3C62.6148 25.4867 62.7548 24.72 63.0348 24C63.3148 23.2667 63.7082 22.6333 64.2148 22.1C64.7215 21.5667 65.3282 21.1467 66.0348 20.84C66.7415 20.52 67.5215 20.36 68.3748 20.36C69.2015 20.36 69.9548 20.5 70.6348 20.78C71.3148 21.0467 71.9348 21.4133 72.4948 21.88L71.4148 23.54C70.9882 23.18 70.5215 22.88 70.0148 22.64C69.5215 22.4 68.9748 22.28 68.3748 22.28C67.8415 22.28 67.3548 22.3867 66.9148 22.6C66.4748 22.8133 66.0948 23.1 65.7748 23.46C65.4682 23.82 65.2282 24.2467 65.0548 24.74C64.8815 25.22 64.7948 25.74 64.7948 26.3C64.7948 26.86 64.8815 27.3867 65.0548 27.88C65.2282 28.3733 65.4682 28.8067 65.7748 29.18C66.0948 29.54 66.4748 29.8267 66.9148 30.04C67.3548 30.2533 67.8415 30.36 68.3748 30.36C68.9748 30.36 69.5348 30.2267 70.0548 29.96C70.5882 29.6933 71.0615 29.3667 71.4748 28.98L72.7348 30.54C72.1748 31.0733 71.5282 31.4933 70.7948 31.8C70.0615 32.1067 69.2548 32.26 68.3748 32.26ZM77.9192 31.94L73.4992 20.6H75.7792L79.0192 29.2L82.2792 20.6H84.5392L78.1592 37.08H75.8992L77.9192 31.94ZM91.3045 32.26C90.4512 32.26 89.6712 32.1067 88.9645 31.8C88.2579 31.48 87.6512 31.0533 87.1445 30.52C86.6379 29.9733 86.2445 29.34 85.9645 28.62C85.6845 27.9 85.5445 27.1267 85.5445 26.3C85.5445 25.4867 85.6845 24.72 85.9645 24C86.2445 23.2667 86.6379 22.6333 87.1445 22.1C87.6512 21.5667 88.2579 21.1467 88.9645 20.84C89.6712 20.52 90.4512 20.36 91.3045 20.36C92.1312 20.36 92.8845 20.5 93.5645 20.78C94.2445 21.0467 94.8645 21.4133 95.4245 21.88L94.3445 23.54C93.9179 23.18 93.4512 22.88 92.9445 22.64C92.4512 22.4 91.9045 22.28 91.3045 22.28C90.7712 22.28 90.2845 22.3867 89.8445 22.6C89.4045 22.8133 89.0245 23.1 88.7045 23.46C88.3979 23.82 88.1579 24.2467 87.9845 24.74C87.8112 25.22 87.7245 25.74 87.7245 26.3C87.7245 26.86 87.8112 27.3867 87.9845 27.88C88.1579 28.3733 88.3979 28.8067 88.7045 29.18C89.0245 29.54 89.4045 29.8267 89.8445 30.04C90.2845 30.2533 90.7712 30.36 91.3045 30.36C91.9045 30.36 92.4645 30.2267 92.9845 29.96C93.5179 29.6933 93.9912 29.3667 94.4045 28.98L95.6645 30.54C95.1045 31.0733 94.4579 31.4933 93.7245 31.8C92.9912 32.1067 92.1845 32.26 91.3045 32.26ZM98.1642 15.94H100.324V32H98.1642V15.94ZM105.304 26.98C105.37 27.54 105.517 28.04 105.744 28.48C105.984 28.9067 106.264 29.2667 106.584 29.56C106.917 29.8533 107.284 30.0733 107.684 30.22C108.097 30.3667 108.517 30.44 108.944 30.44C109.584 30.44 110.19 30.3 110.764 30.02C111.337 29.7267 111.844 29.3267 112.284 28.82L113.704 30.16C113.064 30.8533 112.357 31.38 111.584 31.74C110.824 32.0867 109.957 32.26 108.984 32.26C108.09 32.26 107.277 32.1067 106.544 31.8C105.824 31.4933 105.204 31.0733 104.684 30.54C104.177 29.9933 103.784 29.36 103.504 28.64C103.224 27.9067 103.084 27.1267 103.084 26.3C103.084 25.4867 103.224 24.72 103.504 24C103.784 23.2667 104.177 22.6333 104.684 22.1C105.19 21.5667 105.79 21.1467 106.484 20.84C107.19 20.52 107.964 20.36 108.804 20.36C109.63 20.36 110.384 20.5133 111.064 20.82C111.757 21.1133 112.344 21.52 112.824 22.04C113.317 22.56 113.697 23.1667 113.964 23.86C114.23 24.5533 114.364 25.2933 114.364 26.08C114.364 26.3467 114.33 26.6467 114.264 26.98H105.304ZM108.804 22.2C108.417 22.2 108.037 22.2733 107.664 22.42C107.304 22.5533 106.964 22.7533 106.644 23.02C106.337 23.2867 106.07 23.6133 105.844 24C105.617 24.3733 105.457 24.8 105.364 25.28H112.124C112.044 24.8267 111.904 24.4133 111.704 24.04C111.517 23.6667 111.284 23.3467 111.004 23.08C110.724 22.8 110.397 22.5867 110.024 22.44C109.65 22.28 109.244 22.2 108.804 22.2Z" fill="#47ABFF"/>
<path d="M19.9 12.6604C19.7397 12.4779 19.6513 12.2433 19.6513 12.0004C19.6513 11.7575 19.7397 11.5229 19.9 11.3404L21.18 9.90038C21.3211 9.74305 21.4087 9.54509 21.4302 9.33489C21.4518 9.12469 21.4062 8.91307 21.3 8.73038L19.3 5.27038C19.1949 5.0879 19.0349 4.94326 18.8428 4.85707C18.6506 4.77088 18.4362 4.74754 18.23 4.79038L16.35 5.17038C16.1108 5.21981 15.8618 5.17997 15.6499 5.05838C15.438 4.93679 15.278 4.74187 15.2 4.51038L14.59 2.68038C14.5229 2.48176 14.3951 2.30925 14.2246 2.18723C14.0542 2.0652 13.8497 1.99984 13.64 2.00038H9.64002C9.42195 1.989 9.20615 2.04931 9.02558 2.1721C8.84501 2.29489 8.7096 2.4734 8.64002 2.68038L8.08002 4.51038C8.00202 4.74187 7.84199 4.93679 7.63013 5.05838C7.41827 5.17997 7.16924 5.21981 6.93002 5.17038L5.00002 4.79038C4.80457 4.76276 4.60532 4.79361 4.42737 4.87902C4.24941 4.96444 4.10072 5.10061 4.00002 5.27038L2.00002 8.73038C1.89118 8.91103 1.84224 9.12147 1.8602 9.33161C1.87816 9.54174 1.9621 9.74082 2.10002 9.90038L3.37002 11.3404C3.53034 11.5229 3.61875 11.7575 3.61875 12.0004C3.61875 12.2433 3.53034 12.4779 3.37002 12.6604L2.10002 14.1004C1.9621 14.2599 1.87816 14.459 1.8602 14.6692C1.84224 14.8793 1.89118 15.0897 2.00002 15.2704L4.00002 18.7304C4.10512 18.9129 4.26514 19.0575 4.45727 19.1437C4.6494 19.2299 4.86384 19.2532 5.07002 19.2104L6.95002 18.8304C7.18924 18.781 7.43827 18.8208 7.65013 18.9424C7.86199 19.064 8.02202 19.2589 8.10002 19.4904L8.71002 21.3204C8.7796 21.5274 8.91501 21.7059 9.09558 21.8287C9.27615 21.9515 9.49195 22.0118 9.71002 22.0004H13.71C13.9197 22.0009 14.1242 21.9356 14.2946 21.8135C14.4651 21.6915 14.5929 21.519 14.66 21.3204L15.27 19.4904C15.348 19.2589 15.508 19.064 15.7199 18.9424C15.9318 18.8208 16.1808 18.781 16.42 18.8304L18.3 19.2104C18.5062 19.2532 18.7206 19.2299 18.9128 19.1437C19.1049 19.0575 19.2649 18.9129 19.37 18.7304L21.37 15.2704C21.4762 15.0877 21.5218 14.8761 21.5002 14.6659C21.4787 14.4557 21.3911 14.2577 21.25 14.1004L19.9 12.6604ZM18.41 14.0004L19.21 14.9004L17.93 17.1204L16.75 16.8804C16.0298 16.7332 15.2806 16.8555 14.6446 17.2242C14.0086 17.5929 13.5302 18.1822 13.3 18.8804L12.92 20.0004H10.36L10 18.8604C9.76987 18.1622 9.2914 17.5729 8.65542 17.2042C8.01945 16.8355 7.27024 16.7132 6.55002 16.8604L5.37002 17.1004L4.07002 14.8904L4.87002 13.9904C5.36197 13.4404 5.63395 12.7283 5.63395 11.9904C5.63395 11.2525 5.36197 10.5404 4.87002 9.99038L4.07002 9.09038L5.35002 6.89038L6.53002 7.13038C7.25024 7.27761 7.99945 7.15526 8.63542 6.78658C9.2714 6.4179 9.74987 5.82854 9.98002 5.13038L10.36 4.00038H12.92L13.3 5.14038C13.5302 5.83854 14.0086 6.4279 14.6446 6.79658C15.2806 7.16526 16.0298 7.28761 16.75 7.14038L17.93 6.90038L19.21 9.12038L18.41 10.0204C17.9236 10.5691 17.655 11.2771 17.655 12.0104C17.655 12.7437 17.9236 13.4516 18.41 14.0004ZM11.64 8.00038C10.8489 8.00038 10.0755 8.23498 9.41774 8.67451C8.75994 9.11403 8.24725 9.73874 7.9445 10.4696C7.64175 11.2006 7.56254 12.0048 7.71688 12.7807C7.87122 13.5567 8.25218 14.2694 8.81159 14.8288C9.371 15.3882 10.0837 15.7692 10.8597 15.9235C11.6356 16.0779 12.4398 15.9987 13.1708 15.6959C13.9017 15.3932 14.5264 14.8805 14.9659 14.2227C15.4054 13.5649 15.64 12.7915 15.64 12.0004C15.64 10.9395 15.2186 9.9221 14.4684 9.17196C13.7183 8.42181 12.7009 8.00038 11.64 8.00038ZM11.64 14.0004C11.2445 14.0004 10.8578 13.8831 10.5289 13.6633C10.2 13.4436 9.94363 13.1312 9.79226 12.7657C9.64088 12.4003 9.60128 11.9982 9.67845 11.6102C9.75562 11.2222 9.9461 10.8659 10.2258 10.5862C10.5055 10.3065 10.8619 10.116 11.2498 10.0388C11.6378 9.96164 12.0399 10.0012 12.4054 10.1526C12.7708 10.304 13.0832 10.5603 13.303 10.8892C13.5227 11.2181 13.64 11.6048 13.64 12.0004C13.64 12.5308 13.4293 13.0395 13.0542 13.4146C12.6792 13.7897 12.1705 14.0004 11.64 14.0004Z" fill="black"/>
</svg>
