<svg width="166" height="168" viewBox="0 0 166 168" fill="none" xmlns="http://www.w3.org/2000/svg">
<rect width="166" height="168" rx="25" fill="white"/>
<path d="M32.8471 25.04H30.2071V22.7H38.1271V25.04H35.6271V26.38C35.6271 27.1133 35.6671 27.7667 35.7471 28.34C35.8271 28.9 35.9871 29.4533 36.2271 30C36.4671 30.5467 36.8138 31.1133 37.2671 31.7C37.7204 32.2867 38.3204 32.96 39.0671 33.72L37.3671 35.6C36.6871 34.9333 36.1071 34.32 35.6271 33.76C35.1471 33.1867 34.7338 32.6333 34.3871 32.1C34.0538 32.6867 33.6204 33.3 33.0871 33.94C32.5671 34.58 31.9138 35.3133 31.1271 36.14L29.2871 34.26C30.1004 33.4467 30.7404 32.7267 31.2071 32.1C31.6871 31.4733 32.0471 30.8667 32.2871 30.28C32.5271 29.6933 32.6804 29.0933 32.7471 28.48C32.8138 27.8667 32.8471 27.16 32.8471 26.36V25.04ZM46.1471 21.38V39.88H43.4471V21.38H46.1471ZM42.2271 21.6V39.28H39.6271V29.58H37.1671V27.24H39.6271V21.6H42.2271ZM51.1557 33.48H56.0957V31.94H48.8957V29.72H66.0557V31.94H58.8557V33.48H63.8157V40.08H51.1557V33.48ZM50.3757 28.58V26.32H52.7157V23.96H50.5757V21.7H64.3957V23.96H62.2557V26.32H64.5957V28.58H50.3757ZM53.9757 35.72V37.8H61.0357V35.72H53.9757ZM55.4957 26.32H59.4357V23.96H55.4957V26.32ZM67.7043 28.94H74.8643V27.82H69.9643V21.6H82.6243V27.82H77.6843V28.94H84.8643V31.08H67.7043V28.94ZM82.9043 40.28H69.9643V35.1H79.8243V34.04H69.9643V32.02H82.6243V37.02H72.7843V38.12H82.9043V40.28ZM72.7843 23.84V25.58H79.8243V23.84H72.7843Z" fill="black"/>
<path d="M33.4073 55.124V65.912H34.3913V55.124H33.4073ZM28.7153 55.952C27.1193 55.952 25.9793 57.416 25.9793 59.708C25.9793 62 27.1193 63.464 28.7153 63.464C30.3113 63.464 31.4513 62 31.4513 59.708C31.4513 57.416 30.3113 55.952 28.7153 55.952ZM28.7153 56.84C29.7593 56.84 30.5033 57.968 30.5033 59.708C30.5033 61.46 29.7593 62.588 28.7153 62.588C27.6593 62.588 26.9153 61.46 26.9153 59.708C26.9153 57.968 27.6593 56.84 28.7153 56.84ZM44.4943 63.02H45.4903V55.136H44.4943V57.932H42.4903V58.772H44.4943V63.02ZM42.6823 60.452C41.2543 60.692 40.0423 60.752 38.0383 60.752V59.024H41.8183V55.88H37.0423V56.672H40.8343V58.268H37.0663V61.556H37.8823C40.0063 61.556 41.2663 61.508 42.7783 61.256L42.6823 60.452ZM39.5263 64.844V62.432H38.5423V65.648H45.8143V64.844H39.5263ZM54.1924 57.188H56.1124V56.384H51.2044V57.188H53.2444V58.16C53.2444 60.14 52.4044 62.096 50.9044 62.996L51.5044 63.728C52.5724 63.056 53.3524 61.796 53.7244 60.32C54.0964 61.688 54.8404 62.84 55.8844 63.464L56.4844 62.744C54.9964 61.904 54.1924 60.032 54.1924 58.16V57.188ZM57.0724 58.988H55.2964V59.792H57.0724V65.324H58.0084V55.364H57.0724V58.988ZM59.2324 55.112V65.876H60.1804V55.112H59.2324ZM68.2675 58.52H65.5915V56.264H68.2675V58.52ZM64.6075 58.52H63.0235V59.312H70.8355V58.52H69.2515V56.264H70.8835V55.472H62.9875V56.264H64.6075V58.52ZM69.6595 64.952H64.2355V63.164H69.6595V64.952ZM71.8075 61.124V60.332H62.0755V61.124H66.4555V62.384H63.2755V65.744H70.6195V62.384H67.4395V61.124H71.8075ZM77.9745 56.288C79.6665 56.288 80.7465 56.792 80.7465 57.644C80.7465 58.496 79.6665 58.988 77.9745 58.988C76.2825 58.988 75.2025 58.496 75.2025 57.644C75.2025 56.792 76.2825 56.288 77.9745 56.288ZM77.9745 59.78C80.2785 59.78 81.7545 58.988 81.7545 57.644C81.7545 56.3 80.2785 55.496 77.9745 55.496C75.6705 55.496 74.1945 56.3 74.1945 57.644C74.1945 58.988 75.6705 59.78 77.9745 59.78ZM75.3465 62.528H74.3625V65.648H81.7665V64.844H75.3465V62.528ZM73.1025 60.788V61.58H82.8345V60.788H73.1025ZM90.4086 62.588C89.3766 62.588 88.6566 61.46 88.6566 59.708C88.6566 57.968 89.3766 56.84 90.4086 56.84C91.4286 56.84 92.1486 57.968 92.1486 59.708C92.1486 61.46 91.4286 62.588 90.4086 62.588ZM95.4126 55.124V59.228H93.0726C92.9166 57.212 91.8606 55.952 90.4086 55.952C88.8366 55.952 87.7206 57.416 87.7206 59.708C87.7206 62 88.8366 63.464 90.4086 63.464C91.9086 63.464 92.9766 62.144 93.0726 60.032H95.4126V65.912H96.3966V55.124H95.4126ZM99.7916 57.284H101.196V56.48H98.8916V63.08H99.3236C99.7676 63.08 100.464 63.08 101.352 62.876L101.256 62.06C100.704 62.192 100.188 62.24 99.7916 62.252V57.284ZM102.552 57.284H104.028V56.48H101.652V63.08H102.096C102.72 63.08 103.452 63.068 104.34 62.84L104.256 62.024C103.632 62.192 103.044 62.24 102.552 62.264V57.284ZM106.908 55.124V59.516H105.648V55.364H104.736V65.348H105.648V60.32H106.908V65.876H107.844V55.124H106.908ZM111.204 62.5455V62.4943C111.209 61.9517 111.266 61.5199 111.374 61.1989C111.482 60.8778 111.635 60.6179 111.834 60.419C112.033 60.2202 112.272 60.0369 112.55 59.8693C112.718 59.767 112.868 59.6463 113.002 59.5071C113.135 59.3651 113.241 59.2017 113.317 59.017C113.397 58.8324 113.437 58.6278 113.437 58.4034C113.437 58.125 113.371 57.8835 113.241 57.679C113.11 57.4744 112.935 57.3168 112.716 57.206C112.498 57.0952 112.255 57.0398 111.988 57.0398C111.755 57.0398 111.53 57.0881 111.314 57.1847C111.099 57.2812 110.918 57.4332 110.773 57.6406C110.628 57.848 110.545 58.1193 110.522 58.4545H109.448C109.471 57.9716 109.596 57.5582 109.823 57.2145C110.053 56.8707 110.356 56.608 110.731 56.4261C111.108 56.2443 111.528 56.1534 111.988 56.1534C112.488 56.1534 112.922 56.2528 113.292 56.4517C113.664 56.6506 113.951 56.9233 114.153 57.2699C114.357 57.6165 114.459 58.0114 114.459 58.4545C114.459 58.767 114.411 59.0497 114.314 59.3026C114.221 59.5554 114.084 59.7812 113.905 59.9801C113.729 60.179 113.516 60.3551 113.266 60.5085C113.016 60.6648 112.816 60.8295 112.665 61.0028C112.515 61.1733 112.405 61.3764 112.337 61.6122C112.269 61.848 112.232 62.142 112.226 62.4943V62.5455H111.204ZM111.749 65.0682C111.539 65.0682 111.358 64.9929 111.208 64.8423C111.057 64.6918 110.982 64.5114 110.982 64.3011C110.982 64.0909 111.057 63.9105 111.208 63.7599C111.358 63.6094 111.539 63.5341 111.749 63.5341C111.959 63.5341 112.14 63.6094 112.29 63.7599C112.441 63.9105 112.516 64.0909 112.516 64.3011C112.516 64.4403 112.481 64.5682 112.41 64.6847C112.341 64.8011 112.249 64.8949 112.133 64.9659C112.019 65.0341 111.891 65.0682 111.749 65.0682Z" fill="black"/>
</svg>
