<svg width="24" height="24" viewBox="0 0 24 24" fill="none" xmlns="http://www.w3.org/2000/svg">
<path fill-rule="evenodd" clip-rule="evenodd" d="M2 10.29C2 6.19711 5.08838 4 7.5 4C9.78513 4 11.2095 5.23133 11.9991 6.36635C11.9994 6.36679 11.9997 6.36717 12 6.3675C12 6.3675 12 6.3675 12 6.3675C12 6.3675 12 6.3675 12 6.3675C12.0003 6.36716 12.0006 6.36677 12.0009 6.36633C12.7967 5.2226 14.2932 4 16.5 4C18.8323 4 22 6.18797 22 10.29C22 11.8992 21.3186 13.3688 20.4045 14.622C19.4879 15.8784 18.2877 16.9868 17.1232 17.8967C15.9541 18.8103 14.7897 19.548 13.919 20.0565C13.4826 20.3114 13.1171 20.5103 12.8578 20.6466C12.7282 20.7147 12.6244 20.7676 12.5509 20.8043C12.5144 20.8225 12.484 20.8374 12.4608 20.8486C12.4535 20.8521 12.4456 20.8558 12.4377 20.8596C12.4336 20.8615 12.4295 20.8634 12.4254 20.8652C12.4204 20.8675 12.4096 20.8725 12.3966 20.8781C12.3914 20.8803 12.3761 20.8869 12.3565 20.8943C12.3454 20.8985 12.3159 20.9088 12.2974 20.9148C12.2601 20.9256 12.1119 20.9537 12 20.96C11.8448 20.96 11.6916 20.9239 11.5528 20.8544C11.5533 20.8547 11.3998 20.7798 11.1403 20.6427C10.8819 20.5062 10.5169 20.3071 10.0807 20.0521C9.21042 19.5434 8.04617 18.8061 6.87704 17.8932C5.71267 16.9839 4.51232 15.8765 3.59573 14.6208C2.68147 13.3683 2 11.8993 2 10.29ZM7.5 6C6.17162 6 4 7.32289 4 10.29C4 11.3257 4.44103 12.3867 5.21114 13.4417C5.97893 14.4935 7.02483 15.4711 8.10796 16.3168C9.18633 17.1589 10.2708 17.8466 11.09 18.3254C11.4587 18.541 11.7715 18.7129 12.0029 18.8363C12.2331 18.714 12.544 18.5434 12.9104 18.3294C13.7291 17.8513 14.8134 17.1634 15.8918 16.3208C16.9748 15.4745 18.0208 14.496 18.7887 13.4433C19.5589 12.3874 20 11.3258 20 10.29C20 7.33203 17.7677 6 16.5 6C15.1088 6 14.166 6.75519 13.6413 7.51056L13.6386 7.51443C12.8404 8.65186 11.1596 8.65186 10.3614 7.51443L10.3587 7.51056L10.3587 7.51056C9.82788 6.74644 8.95279 6 7.5 6Z" fill="#DEDEDE"/>
</svg>
