<svg width="33" height="33" viewBox="0 0 33 33" fill="none" xmlns="http://www.w3.org/2000/svg">
<path d="M28.1482 4.85201C24.7829 1.49075 20.0136 -0.447642 14.7695 0.0885103C7.1924 0.851496 0.957284 6.99662 0.110795 14.5646C-1.02474 24.5659 6.71754 33 16.4831 33C23.0692 33 28.7263 29.1438 31.369 23.5967C32.0296 22.2151 31.0386 20.6273 29.5108 20.6273C28.7469 20.6273 28.0243 21.0397 27.694 21.7202C25.361 26.7311 19.7659 29.9068 13.6546 28.5458C9.07119 27.5354 5.37555 23.8029 4.40518 19.225C2.67091 11.224 8.7615 4.13027 16.4831 4.13027C19.9104 4.13027 22.966 5.55314 25.1958 7.80085L22.0782 10.9147C20.7775 12.2138 21.6859 14.4409 23.5234 14.4409H30.9354C32.0709 14.4409 33 13.5129 33 12.3788V4.97574C33 3.14045 30.7702 2.2125 29.4695 3.51163L28.1482 4.85201Z" fill="black"/>
</svg>
